<svg width="24" height="24" viewBox="0 0 24 24" fill="none" xmlns="http://www.w3.org/2000/svg">
    <path d="M12.0065 0.667195C12.122 0.555726 12.2734 0.499544 12.4248 0.500003C12.5762 0.500003 12.728 0.556076 12.8435 0.667545C12.881 0.703782 12.9125 0.743652 12.9378 0.78598C13.0684 1.00427 13.0369 1.28711 12.843 1.47403C12.323 1.97528 12.1947 2.76697 12.5763 3.41235L12.5792 3.41711C13.1046 4.29527 13.0706 5.33658 12.5842 6.16013L12.5791 6.1688C12.4695 6.35192 12.2707 6.45428 12.0662 6.45428C11.9658 6.45428 11.8637 6.42936 11.7705 6.37745C11.6773 6.32554 11.6043 6.25288 11.5542 6.16903C11.4525 5.99908 11.4444 5.78318 11.5518 5.60134L11.5526 5.60005C11.8359 5.1274 11.8628 4.52847 11.5713 4.01853L11.5534 3.98854C10.8952 2.8886 11.1137 1.53231 11.9991 0.673672L12.0003 0.673205L12.0065 0.667195Z" fill="#667085"/>
    <path d="M16.3012 0.667224C16.4167 0.555789 16.5681 0.499554 16.7195 0.500032C16.8709 0.500032 17.0227 0.556139 17.1382 0.667574C17.1757 0.703816 17.2072 0.743672 17.2325 0.786009C17.3631 1.00429 17.3316 1.28715 17.1377 1.47406C16.6172 1.97574 16.4877 2.76665 16.8708 3.41188L16.8739 3.41714C17.3993 4.29528 17.3654 5.33644 16.8791 6.15996L16.8738 6.16883C16.7642 6.35194 16.5654 6.45431 16.3609 6.45431C16.2605 6.45431 16.1584 6.4294 16.0652 6.37748C15.972 6.32557 15.899 6.25293 15.8489 6.16906C15.7472 5.99913 15.7391 5.78319 15.8465 5.60137L15.8472 5.60014C16.1305 5.12749 16.1575 4.52851 15.866 4.01856L15.8481 3.98856C15.1899 2.88863 15.4084 1.53232 16.2938 0.673701L16.295 0.673235L16.3012 0.667224Z" fill="#667085"/>
    <path d="M7.71177 0.677465C7.82728 0.566006 7.97872 0.509795 8.13013 0.510274C8.28154 0.510274 8.43331 0.566356 8.54882 0.677816C8.58635 0.714052 8.61778 0.753923 8.64312 0.79625C8.77373 1.01453 8.74225 1.29739 8.54832 1.4843C8.02767 1.98607 7.89894 2.77825 8.28219 3.42353L8.28449 3.42738C8.80994 4.30552 8.77587 5.34691 8.28949 6.17046L8.28438 6.17907C8.17479 6.36219 7.97597 6.46455 7.77154 6.46455C7.67115 6.46455 7.56898 6.43962 7.47577 6.38772C7.38262 6.33583 7.30962 6.26315 7.25945 6.1793C7.15778 6.00935 7.14975 5.79344 7.25711 5.61161L7.25793 5.61024C7.54121 5.13758 7.5681 4.53876 7.2766 4.0288L7.25868 3.99881C6.60053 2.89889 6.81897 1.54258 7.70442 0.683943L7.70562 0.683476L7.71177 0.677465Z" fill="#667085"/>
    <path fill-rule="evenodd" clip-rule="evenodd" d="M3 8.80459C3.00001 8.48941 3.26482 8.23345 3.59148 8.23392H20.4085C20.7352 8.23392 21 8.48941 21 8.80459C21 9.11978 20.7352 9.37532 20.4086 9.37532L19.5598 9.37535V9.47879C19.5598 12.2813 17.9004 14.7097 15.478 15.9008L15.4793 15.9003L16.3544 19.0521L16.3562 19.0517C17.4831 19.2028 18.3506 20.1362 18.3506 21.2651C18.3506 22.4994 17.3136 23.5 16.0345 23.5C14.8266 23.5 13.8346 22.6077 13.7279 21.4694L13.7297 21.4689L8.39705 21.4688L7.96772 23.0149C7.89691 23.2698 7.65792 23.438 7.39674 23.438C7.34608 23.438 7.29456 23.4317 7.24328 23.4184C6.92773 23.3368 6.74047 23.0239 6.82501 22.7194L8.7186 15.9008L8.72035 15.9003C6.29692 14.711 4.63665 12.282 4.63665 9.47879V9.37535L3.59145 9.37532C3.26479 9.37532 2.99999 9.11978 3 8.80459ZM18.3773 9.47879V9.37538L5.8192 9.37582V9.47879C5.8192 12.825 8.63042 15.5376 12.0982 15.5376C15.566 15.5376 18.3773 12.825 18.3773 9.47879ZM15.1687 19.1924L14.376 16.3376H14.3742C13.6567 16.559 12.8919 16.6786 12.0982 16.6786C11.305 16.6786 10.5407 16.5592 9.8236 16.3384L9.82183 16.338L8.714 20.3274L13.9315 20.3275C14.178 19.8137 14.6207 19.4055 15.1669 19.1928L15.1687 19.1924ZM15.9938 22.6238C16.7704 22.6238 17.4 22.0108 17.4 21.2547C17.4 20.4986 16.7704 19.8857 15.9938 19.8857C15.2171 19.8857 14.5875 20.4986 14.5875 21.2547C14.5875 22.0108 15.2171 22.6238 15.9938 22.6238Z" fill="#667085"/>
    <path d="M12.0065 0.667195C12.122 0.555726 12.2734 0.499544 12.4248 0.500003C12.5762 0.500003 12.728 0.556076 12.8435 0.667545C12.881 0.703782 12.9125 0.743652 12.9378 0.78598C13.0684 1.00427 13.0369 1.28711 12.843 1.47403C12.323 1.97528 12.1947 2.76697 12.5763 3.41235L12.5792 3.41711C13.1046 4.29527 13.0706 5.33658 12.5842 6.16013L12.5791 6.1688C12.4695 6.35192 12.2707 6.45428 12.0662 6.45428C11.9658 6.45428 11.8637 6.42936 11.7705 6.37745C11.6773 6.32554 11.6043 6.25288 11.5542 6.16903C11.4525 5.99908 11.4444 5.78318 11.5518 5.60134L11.5526 5.60005C11.8359 5.1274 11.8628 4.52847 11.5713 4.01853L11.5534 3.98854C10.8952 2.8886 11.1137 1.53231 11.9991 0.673672L12.0003 0.673205L12.0065 0.667195Z" stroke="#667085" stroke-width="0.7"/>
    <path d="M16.3012 0.667224C16.4167 0.555789 16.5681 0.499554 16.7195 0.500032C16.8709 0.500032 17.0227 0.556139 17.1382 0.667574C17.1757 0.703816 17.2072 0.743672 17.2325 0.786009C17.3631 1.00429 17.3316 1.28715 17.1377 1.47406C16.6172 1.97574 16.4877 2.76665 16.8708 3.41188L16.8739 3.41714C17.3993 4.29528 17.3654 5.33644 16.8791 6.15996L16.8738 6.16883C16.7642 6.35194 16.5654 6.45431 16.3609 6.45431C16.2605 6.45431 16.1584 6.4294 16.0652 6.37748C15.972 6.32557 15.899 6.25293 15.8489 6.16906C15.7472 5.99913 15.7391 5.78319 15.8465 5.60137L15.8472 5.60014C16.1305 5.12749 16.1575 4.52851 15.866 4.01856L15.8481 3.98856C15.1899 2.88863 15.4084 1.53232 16.2938 0.673701L16.295 0.673235L16.3012 0.667224Z" stroke="#667085" stroke-width="0.7"/>
    <path d="M7.71177 0.677465C7.82728 0.566006 7.97872 0.509795 8.13013 0.510274C8.28154 0.510274 8.43331 0.566356 8.54882 0.677816C8.58635 0.714052 8.61778 0.753923 8.64312 0.79625C8.77373 1.01453 8.74225 1.29739 8.54832 1.4843C8.02767 1.98607 7.89894 2.77825 8.28219 3.42353L8.28449 3.42738C8.80994 4.30552 8.77587 5.34691 8.28949 6.17046L8.28438 6.17907C8.17479 6.36219 7.97597 6.46455 7.77154 6.46455C7.67115 6.46455 7.56898 6.43962 7.47577 6.38772C7.38262 6.33583 7.30962 6.26315 7.25945 6.1793C7.15778 6.00935 7.14975 5.79344 7.25711 5.61161L7.25793 5.61024C7.54121 5.13758 7.5681 4.53876 7.2766 4.0288L7.25868 3.99881C6.60053 2.89889 6.81897 1.54258 7.70442 0.683943L7.70562 0.683476L7.71177 0.677465Z" stroke="#667085" stroke-width="0.7"/>
    <path fill-rule="evenodd" clip-rule="evenodd" d="M3 8.80459C3.00001 8.48941 3.26482 8.23345 3.59148 8.23392H20.4085C20.7352 8.23392 21 8.48941 21 8.80459C21 9.11978 20.7352 9.37532 20.4086 9.37532L19.5598 9.37535V9.47879C19.5598 12.2813 17.9004 14.7097 15.478 15.9008L15.4793 15.9003L16.3544 19.0521L16.3562 19.0517C17.4831 19.2028 18.3506 20.1362 18.3506 21.2651C18.3506 22.4994 17.3136 23.5 16.0345 23.5C14.8266 23.5 13.8346 22.6077 13.7279 21.4694L13.7297 21.4689L8.39705 21.4688L7.96772 23.0149C7.89691 23.2698 7.65792 23.438 7.39674 23.438C7.34608 23.438 7.29456 23.4317 7.24328 23.4184C6.92773 23.3368 6.74047 23.0239 6.82501 22.7194L8.7186 15.9008L8.72035 15.9003C6.29692 14.711 4.63665 12.282 4.63665 9.47879V9.37535L3.59145 9.37532C3.26479 9.37532 2.99999 9.11978 3 8.80459ZM18.3773 9.47879V9.37538L5.8192 9.37582V9.47879C5.8192 12.825 8.63042 15.5376 12.0982 15.5376C15.566 15.5376 18.3773 12.825 18.3773 9.47879ZM15.1687 19.1924L14.376 16.3376H14.3742C13.6567 16.559 12.8919 16.6786 12.0982 16.6786C11.305 16.6786 10.5407 16.5592 9.8236 16.3384L9.82183 16.338L8.714 20.3274L13.9315 20.3275C14.178 19.8137 14.6207 19.4055 15.1669 19.1928L15.1687 19.1924ZM15.9938 22.6238C16.7704 22.6238 17.4 22.0108 17.4 21.2547C17.4 20.4986 16.7704 19.8857 15.9938 19.8857C15.2171 19.8857 14.5875 20.4986 14.5875 21.2547C14.5875 22.0108 15.2171 22.6238 15.9938 22.6238Z" stroke="#667085" stroke-width="0.7"/>
</svg>
