<svg width="24" height="24" viewBox="0 0 24 24" fill="none" xmlns="http://www.w3.org/2000/svg">
    <path d="M14.284 9.25773C14.5769 8.96483 15.0517 8.96483 15.3446 9.25773C15.6375 9.55062 15.6375 10.0255 15.3446 10.3184L14.4129 11.2501H17.6504C18.0646 11.2501 18.4004 11.5859 18.4004 12.0001C18.4004 12.4144 18.0646 12.7501 17.6504 12.7501H14.4129L15.3446 13.6819C15.6375 13.9748 15.6375 14.4497 15.3446 14.7426C15.0517 15.0355 14.5769 15.0355 14.284 14.7426L12.0719 12.5305C11.779 12.2376 11.779 11.7627 12.0719 11.4698L14.284 9.25773Z" fill="#667085"/>
    <path fill-rule="evenodd" clip-rule="evenodd" d="M21.6274 6.00391C21.6274 4.34705 20.2842 3.00391 18.6274 3.00391H5.43164C3.77478 3.00391 2.43164 4.34705 2.43164 6.00391V17.9964C2.43164 19.6533 3.77479 20.9964 5.43164 20.9964H18.6274C20.2842 20.9964 21.6274 19.6533 21.6274 17.9964V6.00391ZM5.43164 4.50391H8.48548V19.4964H5.43164C4.60321 19.4964 3.93164 18.8248 3.93164 17.9964V6.00391C3.93164 5.17548 4.60321 4.50391 5.43164 4.50391ZM9.98548 19.4964H18.6274C19.4558 19.4964 20.1274 18.8248 20.1274 17.9964V6.00391C20.1274 5.17548 19.4558 4.50391 18.6274 4.50391H9.98548V19.4964Z" fill="#667085"/>
    <path d="M14.284 9.25773C14.5769 8.96483 15.0517 8.96483 15.3446 9.25773C15.6375 9.55062 15.6375 10.0255 15.3446 10.3184L14.4129 11.2501H17.6504C18.0646 11.2501 18.4004 11.5859 18.4004 12.0001C18.4004 12.4144 18.0646 12.7501 17.6504 12.7501H14.4129L15.3446 13.6819C15.6375 13.9748 15.6375 14.4497 15.3446 14.7426C15.0517 15.0355 14.5769 15.0355 14.284 14.7426L12.0719 12.5305C11.779 12.2376 11.779 11.7627 12.0719 11.4698L14.284 9.25773Z" stroke="#667085" stroke-width="0.5" stroke-linecap="round"/>
    <path fill-rule="evenodd" clip-rule="evenodd" d="M21.6274 6.00391C21.6274 4.34705 20.2842 3.00391 18.6274 3.00391H5.43164C3.77478 3.00391 2.43164 4.34705 2.43164 6.00391V17.9964C2.43164 19.6533 3.77479 20.9964 5.43164 20.9964H18.6274C20.2842 20.9964 21.6274 19.6533 21.6274 17.9964V6.00391ZM5.43164 4.50391H8.48548V19.4964H5.43164C4.60321 19.4964 3.93164 18.8248 3.93164 17.9964V6.00391C3.93164 5.17548 4.60321 4.50391 5.43164 4.50391ZM9.98548 19.4964H18.6274C19.4558 19.4964 20.1274 18.8248 20.1274 17.9964V6.00391C20.1274 5.17548 19.4558 4.50391 18.6274 4.50391H9.98548V19.4964Z" stroke="#667085" stroke-width="0.5" stroke-linecap="round"/>
</svg>
