<svg width="32" height="32" viewBox="0 0 32 32" fill="none" xmlns="http://www.w3.org/2000/svg">
    <path fill-rule="evenodd" clip-rule="evenodd" d="M19.1959 0.3125H12.7252C5.83859 0.3125 0.246094 5.931 0.246094 12.8497V22.1365C0.246094 27.5228 4.59065 31.8877 9.95211 31.8877V24.5047L15.9606 18.7468L21.5068 24.4582V31.8877C27.1455 31.8877 31.675 27.3372 31.675 21.6722V12.8497C31.675 5.931 26.1287 0.3125 19.1959 0.3125ZM19.1959 7.0919V2.16986C19.9816 2.16986 20.7673 2.2627 21.5068 2.40204V7.2776L17.948 10.853L16.8849 11.9675V9.22787L17.9942 8.11346L19.1959 7.0919ZM9.16639 2.81998V6.58113L6.67059 4.12015C7.41004 3.56287 8.24196 3.145 9.16639 2.81998ZM15.0362 17.0288L8.10334 23.6688V29.7981C4.68313 28.9623 2.09486 25.8512 2.09486 22.1365V12.8497C2.09486 9.92434 3.29659 7.23117 5.19155 5.32738L9.39749 9.45998L11.0151 11.0852L8.88908 11.0852L5.97727 8.1599L4.68313 9.46006L8.14956 12.9426L12.9101 12.9425L13.1874 13.2211L15.0824 15.1249V17.0288H15.0362ZM15.8219 7.64911L14.574 6.44179V3.79505H12.7252V7.18475L15.0362 9.50648V12.4318L14.4816 11.8746L13.9269 11.3174L10.9689 8.39207L10.9689 2.3092C11.5698 2.21629 12.1706 2.16986 12.7252 2.16986H17.3471V6.2096L16.7 6.7204L15.8219 7.64911ZM29.8262 21.6722C29.8262 25.6655 27.0531 28.9623 23.3556 29.8446V23.7153L16.8849 17.0288V14.5678L19.2421 12.1996L20.0741 11.3638H25.2506L27.7001 8.94927L26.406 7.64911L24.511 9.55289H21.9228L23.3556 8.11346V3.00566C27.1917 4.63086 29.8262 8.4385 29.8262 12.8497V21.6722Z" fill="#72965D"/>
    <path fill-rule="evenodd" clip-rule="evenodd" d="M14.5742 24.9219H16.423V28.1722L14.5742 28.1723V24.9219Z" fill="#72965D"/>
</svg>
