<svg width="109" height="32" viewBox="0 0 109 32" fill="none" xmlns="http://www.w3.org/2000/svg">
    <path fill-rule="evenodd" clip-rule="evenodd" d="M20.1959 0.3125H13.7252C6.83859 0.3125 1.24609 5.931 1.24609 12.8497V22.1365C1.24609 27.5228 5.59065 31.8877 10.9521 31.8877V24.5047L16.9606 18.7468L22.5068 24.4582V31.8877C28.1455 31.8877 32.675 27.3372 32.675 21.6722V12.8497C32.675 5.931 27.1287 0.3125 20.1959 0.3125ZM20.1959 7.0919V2.16986C20.9816 2.16986 21.7673 2.2627 22.5068 2.40204V7.2776L18.948 10.853L17.8849 11.9675V9.22787L18.9942 8.11346L20.1959 7.0919ZM10.1664 2.81998V6.58113L7.67059 4.12015C8.41004 3.56287 9.24196 3.145 10.1664 2.81998ZM16.0362 17.0288L9.10334 23.6688V29.7981C5.68313 28.9623 3.09486 25.8512 3.09486 22.1365V12.8497C3.09486 9.92434 4.29659 7.23117 6.19155 5.32738L10.3975 9.45998L12.0151 11.0852L9.88908 11.0852L6.97727 8.1599L5.68313 9.46006L9.14956 12.9426L13.9101 12.9425L14.1874 13.2211L16.0824 15.1249V17.0288H16.0362ZM16.8219 7.64911L15.574 6.44179V3.79505H13.7252V7.18475L16.0362 9.50648V12.4318L15.4816 11.8746L14.9269 11.3174L11.9689 8.39207L11.9689 2.3092C12.5698 2.21629 13.1706 2.16986 13.7252 2.16986H18.3471V6.2096L17.7 6.7204L16.8219 7.64911ZM30.8262 21.6722C30.8262 25.6655 28.0531 28.9623 24.3556 29.8446V23.7153L17.8849 17.0288V14.5678L20.2421 12.1996L21.0741 11.3638H26.2506L28.7001 8.94927L27.406 7.64911L25.511 9.55289H22.9228L24.3556 8.11346V3.00566C28.1917 4.63086 30.8262 8.4385 30.8262 12.8497V21.6722Z" fill="#72965D"/>
    <path fill-rule="evenodd" clip-rule="evenodd" d="M15.5742 24.9219H17.423V28.1722L15.5742 28.1723V24.9219Z" fill="#72965D"/>
    <path fill-rule="evenodd" clip-rule="evenodd" d="M37.6973 14.5905V4.89093H44.4584V6.53009H39.6899V8.83311H43.8125V10.4723H39.6899V14.5905H37.6973ZM46.0227 14.5905V4.89093H48.0153V14.5905H46.0227ZM71.6659 11.9524L73.6035 11.7627C73.7794 12.725 74.7166 13.1139 75.6165 13.1139C76.2532 13.1139 76.7342 12.9807 77.0571 12.7143C77.38 12.4479 77.5427 12.1363 77.5427 11.7796C77.5427 11.5492 77.474 11.3551 77.3389 11.1925C77.2037 11.0322 76.9655 10.8922 76.6265 10.7748C76.3952 10.6935 75.8684 10.5535 75.0439 10.3504C73.9835 10.0884 73.2391 9.76784 72.8108 9.38626C72.2084 8.85114 71.9084 8.19865 71.9084 7.42874C71.9084 6.93425 72.0504 6.46916 72.3321 6.03791C72.6161 5.60665 73.0238 5.27931 73.5574 5.0535C74.0911 4.82774 74.7324 4.71484 75.4883 4.71484C76.7182 4.71484 77.6457 4.98353 78.2664 5.52311C78.8894 6.06275 79.2146 6.78073 79.2467 7.68159L77.2541 7.74936C77.1694 7.24808 76.9884 6.8891 76.7113 6.67009C76.4341 6.45108 76.0173 6.34047 75.463 6.34047C74.8904 6.34047 74.4415 6.45785 74.1186 6.69266C73.9101 6.84397 73.8048 7.04488 73.8048 7.29778C73.8048 7.52808 73.9032 7.72447 74.1002 7.88704C74.3499 8.09702 74.9569 8.31378 75.9211 8.53958C76.8854 8.76309 77.5976 8.99794 78.058 9.23726C78.5207 9.47881 78.8825 9.80621 79.1437 10.2239C79.4048 10.6416 79.5353 11.1564 79.5353 11.7682C79.5353 12.3237 79.3796 12.8452 79.0658 13.3306C78.752 13.8161 78.31 14.1774 77.7373 14.4122C77.1648 14.6492 76.4502 14.7666 75.5959 14.7666C73.686 14.7666 71.9179 14.0404 71.6659 11.9524ZM83.4381 14.5905V6.53009H80.5247V4.89093H88.3303V6.53009H85.4307V14.5905H83.4381ZM53.3885 14.5905L49.8682 4.89093H52.0211L54.5199 12.0708L56.9179 4.89093H59.0342L55.5346 14.5905H53.3885ZM60.0375 14.5905V4.89093H67.2325V6.53009H62.03V8.86144H66.8615V10.5007H62.03V12.9514H67.4248V14.5905H60.0375ZM98.0712 14.5905H95.9251L95.0754 12.3824H91.1291L90.3114 14.5905H88.2043L92.0246 4.89093H94.1295L98.0712 14.5905ZM94.4996 10.931L93.0622 7.15327L91.6053 10.9896L94.4996 10.931ZM99.1317 14.5905V4.89093H103.051C104.103 4.89093 104.868 4.97949 105.344 5.15284C105.822 5.32693 106.204 5.6358 106.489 6.08079C106.776 6.52739 106.92 7.03584 106.92 7.60936C106.92 8.3386 106.704 8.93922 106.272 9.41335C105.839 9.88749 105.193 10.1855 104.332 10.3097C104.76 10.5558 105.112 10.8275 105.39 11.1225C105.668 11.4187 106.04 11.9475 106.517 12.6985L107.717 14.5905H105.342L103.917 12.4727C103.41 11.7186 103.056 11.4239 102.866 11.2276C102.678 11.0337 102.479 10.8974 102.268 10.8257C102.055 10.7534 101.985 10.7174 101.527 10.7174H101.124V14.5905H99.1317ZM101.124 9.26174H102.33C103.283 9.26174 103.876 9.22115 104.114 9.14204C104.35 9.06365 104.537 8.9245 104.671 8.73116C104.805 8.53671 104.872 8.02704 104.872 7.73578C104.872 7.40839 104.783 7.14587 104.606 6.94329C104.431 6.74197 104.181 6.61334 103.86 6.56398C103.698 6.53909 103.214 6.53009 102.41 6.53009H101.124V9.26174ZM37.6973 29.1828V19.4832H40.8832C42.0902 19.4832 42.8758 19.5306 43.2422 19.6277C43.8056 19.7744 44.2775 20.0905 44.6577 20.5782C45.0378 21.0659 45.2279 21.6959 45.2279 22.468C45.2279 23.0641 45.118 23.5631 44.9004 23.9695C44.6806 24.3759 44.4034 24.6942 44.0667 24.9268C43.7301 25.1571 43.3872 25.3143 43.0384 25.3851C42.5651 25.4812 41.8793 25.5251 40.9816 25.5251H39.5574V29.1828H37.6973ZM39.5574 21.1223V23.8859H40.7732C41.5543 23.8859 42.0742 23.8339 42.3376 23.7324C42.6009 23.6309 42.807 23.4728 42.956 23.2537C43.1048 23.037 43.1804 22.7864 43.1804 22.4974C43.1804 22.1429 43.075 21.8517 42.8666 21.6214C42.6559 21.391 42.3925 21.2465 42.0696 21.1878C41.8337 21.145 41.3594 21.1223 40.645 21.1223H39.5574ZM46.9183 29.1828V19.5645H48.9109V27.5436H53.8443V29.1828H46.9183ZM64.1212 29.1828H61.9751L61.1253 26.9746H57.1791L56.3614 29.1828H54.2543L58.0746 19.4832H60.1794L64.1212 29.1828ZM60.4795 25.3355L59.1122 21.7455L57.7837 25.3355H60.4795ZM71.2653 25.7472L73.2489 25.892C73.1896 29.1737 68.5392 30.5888 66.0863 28.0245C65.2449 27.145 64.8243 25.9405 64.8243 24.412C64.8243 21.8836 65.5957 20.2433 67.0974 19.4818C69.4581 18.2849 72.766 19.5177 73.2085 22.4805L71.4069 22.6125C70.8575 21.0042 69.2837 20.3143 68.0377 20.9786C67.1938 21.4286 66.6384 22.5929 66.6384 24.0094C66.6384 25.2331 67.0963 26.3652 67.543 26.8843C67.9917 27.406 68.5736 27.6655 69.2905 27.6655C69.8196 27.6655 70.2754 27.5007 70.6556 27.1688C71.0358 26.8369 71.1004 26.4584 71.2653 25.7472ZM75.1058 29.1828V19.4832H81.8594V21.1223H76.9219V23.2763H81.4884V24.9155H76.9219V27.5436H82.0518V29.1828H75.1058Z" fill="black"/>
</svg>
